{
  "version": "1.dev.7a789af",
  "modules": [
    {
      "id": 88,
      "plugin": "Ahornberg",
      "version": "1.1.0",
      "model": "Metronome",
      "params": [
        {
          "id": 0,
          "value": 0.0
        },
        {
          "id": 1,
          "value": 0.0
        },
        {
          "id": 2,
          "value": 0.0
        },
        {
          "id": 3,
          "value": 0.0
        },
        {
          "id": 4,
          "value": 0.0
        },
        {
          "id": 5,
          "value": 0.0
        },
        {
          "id": 6,
          "value": 0.0
        },
        {
          "id": 7,
          "value": 0.0
        },
        {
          "id": 8,
          "value": 0.0
        },
        {
          "id": 9,
          "value": 0.0
        },
        {
          "id": 10,
          "value": 1.0
        },
        {
          "id": 11,
          "value": 0.0
        },
        {
          "id": 12,
          "value": 0.0
        },
        {
          "id": 13,
          "value": 0.0
        },
        {
          "id": 14,
          "value": 0.0
        },
        {
          "id": 15,
          "value": 0.0
        },
        {
          "id": 16,
          "value": 0.0
        },
        {
          "id": 17,
          "value": 0.0
        },
        {
          "id": 18,
          "value": 0.0
        },
        {
          "id": 19,
          "value": 0.0
        },
        {
          "id": 20,
          "value": 0.0
        },
        {
          "id": 21,
          "value": 0.0
        },
        {
          "id": 22,
          "value": 0.0
        },
        {
          "id": 23,
          "value": 0.0
        },
        {
          "id": 24,
          "value": 0.0
        },
        {
          "id": 25,
          "value": 0.0
        },
        {
          "id": 26,
          "value": 0.0
        },
        {
          "id": 27,
          "value": 0.0
        },
        {
          "id": 28,
          "value": 0.0
        },
        {
          "id": 29,
          "value": 0.0
        },
        {
          "id": 30,
          "value": 0.0
        },
        {
          "id": 31,
          "value": 0.0
        },
        {
          "id": 32,
          "value": 0.0
        },
        {
          "id": 33,
          "value": 0.0
        },
        {
          "id": 34,
          "value": 0.0
        },
        {
          "id": 35,
          "value": 0.0
        },
        {
          "id": 36,
          "value": 0.0
        },
        {
          "id": 37,
          "value": 0.0
        },
        {
          "id": 38,
          "value": 0.0
        },
        {
          "id": 39,
          "value": 10.0
        },
        {
          "id": 40,
          "value": 10.0
        },
        {
          "id": 41,
          "value": 0.0
        }
      ],
      "leftModuleId": 90,
      "rightModuleId": 93,
      "pos": [
        30,
        0
      ]
    },
    {
      "id": 90,
      "plugin": "Core",
      "version": "1.1.6",
      "model": "MIDITriggerToCVInterface",
      "params": [],
      "rightModuleId": 88,
      "data": {
        "notes": [
          47,
          38,
          40,
          41,
          42,
          36,
          46,
          48,
          40,
          41,
          42,
          43,
          36,
          37,
          38,
          39
        ],
        "velocity": false,
        "midi": {
          "driver": -11,
          "deviceName": "Numpad keyboard (US)",
          "channel": -1
        }
      },
      "pos": [
        20,
        0
      ]
    },
    {
      "id": 93,
      "plugin": "Autodafe-DrumKit",
      "version": "1.0.0",
      "model": "DrumsRimClaves",
      "params": [
        {
          "id": 0,
          "value": 0.0
        }
      ],
      "leftModuleId": 88,
      "rightModuleId": 95,
      "data": {
        "sampletype": 1
      },
      "pos": [
        44,
        0
      ]
    },
    {
      "id": 94,
      "plugin": "Core",
      "version": "1.1.6",
      "model": "AudioInterface",
      "params": [],
      "leftModuleId": 95,
      "data": {
        "audio": {
          "driver": 7,
          "deviceName": "MOTU Audio ASIO",
          "offset": 0,
          "maxChannels": 8,
          "sampleRate": 44100,
          "blockSize": 512
        }
      },
      "pos": [
        51,
        0
      ]
    },
    {
      "id": 95,
      "plugin": "Fundamental",
      "version": "1.4.0",
      "model": "VCA-1",
      "params": [
        {
          "id": 0,
          "value": 0.411000013
        },
        {
          "id": 1,
          "value": 1.0
        }
      ],
      "leftModuleId": 93,
      "rightModuleId": 94,
      "pos": [
        48,
        0
      ]
    },
    {
      "id": 98,
      "plugin": "computerscare",
      "version": "1.3.0",
      "model": "computerscare-blank",
      "params": [],
      "data": {
        "path": "C:\\msys64\\home\\Birgit\\Rack\\plugins\\Ahornberg\\manual-pics\\numpad.png",
        "width": 300.0,
        "imageFitEnum": 1,
        "invertY": true,
        "zoomX": 0.381679386,
        "zoomY": 0.381679386,
        "xOffset": 0.0,
        "yOffset": 0.0,
        "rotation": 0
      },
      "pos": [
        0,
        0
      ]
    }
  ],
  "cables": [
    {
      "id": 118,
      "outputModuleId": 90,
      "outputId": 0,
      "inputModuleId": 88,
      "inputId": 5,
      "color": "#0c8e15"
    },
    {
      "id": 119,
      "outputModuleId": 90,
      "outputId": 1,
      "inputModuleId": 88,
      "inputId": 3,
      "color": "#c91847"
    },
    {
      "id": 120,
      "outputModuleId": 90,
      "outputId": 2,
      "inputModuleId": 88,
      "inputId": 2,
      "color": "#0986ad"
    },
    {
      "id": 121,
      "outputModuleId": 90,
      "outputId": 3,
      "inputModuleId": 88,
      "inputId": 1,
      "color": "#c9b70e"
    },
    {
      "id": 122,
      "outputModuleId": 90,
      "outputId": 4,
      "inputModuleId": 88,
      "inputId": 0,
      "color": "#0c8e15"
    },
    {
      "id": 123,
      "outputModuleId": 90,
      "outputId": 5,
      "inputModuleId": 88,
      "inputId": 4,
      "color": "#c91847"
    },
    {
      "id": 125,
      "outputModuleId": 95,
      "outputId": 0,
      "inputModuleId": 94,
      "inputId": 0,
      "color": "#c9b70e"
    },
    {
      "id": 126,
      "outputModuleId": 95,
      "outputId": 0,
      "inputModuleId": 94,
      "inputId": 1,
      "color": "#0c8e15"
    },
    {
      "id": 124,
      "outputModuleId": 88,
      "outputId": 0,
      "inputModuleId": 93,
      "inputId": 0,
      "color": "#0986ad"
    },
    {
      "id": 127,
      "outputModuleId": 93,
      "outputId": 0,
      "inputModuleId": 95,
      "inputId": 1,
      "color": "#c91847"
    }
  ]
}